 <svg width="614" height="390" viewBox="0 0 614 390" fill="none" xmlns="http://www.w3.org/2000/svg">
        <g id="box-figma">

        <g id="box">
        <rect id="figny9-box" x="28" y="20" width="559" height="286" fill="#5FE36A" fill-opacity="0.05" stroke="#5FE36A" stroke-width="2"/>
        <rect id="figny9-adjust-1" x="23" y="15" width="10" height="10" fill="white" stroke="#5FE36A" stroke-width="2"/>
        <rect id="figny9-adjust-3" x="23" y="301" width="10" height="10" fill="white" stroke="#5FE36A" stroke-width="2"/>
        <rect id="figny9-adjust-4" x="582" y="301" width="10" height="10" fill="white" stroke="#5FE36A" stroke-width="2"/>
        <rect id="figny9-adjust-2" x="582" y="15" width="10" height="10" fill="white" stroke="#5FE36A" stroke-width="2"/>
        </g>
        <g id="cursor">
        <path id="Vector 273" d="M400.5 343L395 317L418.5 331L407 333.5L400.5 343Z" fill="#5FE36A" stroke="white" stroke-width="2"/>
        <rect id="Rectangle 786" x="418" y="343" width="171" height="33" fill="#5FE36A"/>
        <path id="N&#195;&#161;sser Yousef Ali" d="M442.098 366C441.834 365.556 441.528 365.058 441.18 364.506C440.844 363.954 440.478 363.384 440.082 362.796C439.686 362.196 439.272 361.59 438.84 360.978C438.42 360.366 438 359.778 437.58 359.214C437.16 358.638 436.752 358.098 436.356 357.594C435.96 357.09 435.594 356.646 435.258 356.262V366H433.548V353.526H434.934C435.498 354.126 436.098 354.828 436.734 355.632C437.382 356.424 438.018 357.246 438.642 358.098C439.278 358.938 439.872 359.766 440.424 360.582C440.988 361.398 441.462 362.124 441.846 362.76V353.526H443.556V366H442.098ZM449.704 364.794C450.1 364.794 450.448 364.788 450.748 364.776C451.06 364.752 451.318 364.716 451.522 364.668V361.878C451.402 361.818 451.204 361.77 450.928 361.734C450.664 361.686 450.34 361.662 449.956 361.662C449.704 361.662 449.434 361.68 449.146 361.716C448.87 361.752 448.612 361.83 448.372 361.95C448.144 362.058 447.952 362.214 447.796 362.418C447.64 362.61 447.562 362.868 447.562 363.192C447.562 363.792 447.754 364.212 448.138 364.452C448.522 364.68 449.044 364.794 449.704 364.794ZM449.56 356.406C450.232 356.406 450.796 356.496 451.252 356.676C451.72 356.844 452.092 357.09 452.368 357.414C452.656 357.726 452.86 358.104 452.98 358.548C453.1 358.98 453.16 359.46 453.16 359.988V365.838C453.016 365.862 452.812 365.898 452.548 365.946C452.296 365.982 452.008 366.018 451.684 366.054C451.36 366.09 451.006 366.12 450.622 366.144C450.25 366.18 449.878 366.198 449.506 366.198C448.978 366.198 448.492 366.144 448.048 366.036C447.604 365.928 447.22 365.76 446.896 365.532C446.572 365.292 446.32 364.98 446.14 364.596C445.96 364.212 445.87 363.75 445.87 363.21C445.87 362.694 445.972 362.25 446.176 361.878C446.392 361.506 446.68 361.206 447.04 360.978C447.4 360.75 447.82 360.582 448.3 360.474C448.78 360.366 449.284 360.312 449.812 360.312C449.98 360.312 450.154 360.324 450.334 360.348C450.514 360.36 450.682 360.384 450.838 360.42C451.006 360.444 451.15 360.468 451.27 360.492C451.39 360.516 451.474 360.534 451.522 360.546V360.078C451.522 359.802 451.492 359.532 451.432 359.268C451.372 358.992 451.264 358.752 451.108 358.548C450.952 358.332 450.736 358.164 450.46 358.044C450.196 357.912 449.848 357.846 449.416 357.846C448.864 357.846 448.378 357.888 447.958 357.972C447.55 358.044 447.244 358.122 447.04 358.206L446.842 356.82C447.058 356.724 447.418 356.634 447.922 356.55C448.426 356.454 448.972 356.406 449.56 356.406ZM452.008 353.094L449.47 355.56L448.624 354.804L450.928 352.032L452.008 353.094ZM458.118 364.794C458.802 364.794 459.306 364.704 459.63 364.524C459.966 364.344 460.134 364.056 460.134 363.66C460.134 363.252 459.972 362.928 459.648 362.688C459.324 362.448 458.79 362.178 458.046 361.878C457.686 361.734 457.338 361.59 457.002 361.446C456.678 361.29 456.396 361.11 456.156 360.906C455.916 360.702 455.724 360.456 455.58 360.168C455.436 359.88 455.364 359.526 455.364 359.106C455.364 358.278 455.67 357.624 456.282 357.144C456.894 356.652 457.728 356.406 458.784 356.406C459.048 356.406 459.312 356.424 459.576 356.46C459.84 356.484 460.086 356.52 460.314 356.568C460.542 356.604 460.74 356.646 460.908 356.694C461.088 356.742 461.226 356.784 461.322 356.82L461.016 358.26C460.836 358.164 460.554 358.068 460.17 357.972C459.786 357.864 459.324 357.81 458.784 357.81C458.316 357.81 457.908 357.906 457.56 358.098C457.212 358.278 457.038 358.566 457.038 358.962C457.038 359.166 457.074 359.346 457.146 359.502C457.23 359.658 457.35 359.802 457.506 359.934C457.674 360.054 457.878 360.168 458.118 360.276C458.358 360.384 458.646 360.498 458.982 360.618C459.426 360.786 459.822 360.954 460.17 361.122C460.518 361.278 460.812 361.464 461.052 361.68C461.304 361.896 461.496 362.16 461.628 362.472C461.76 362.772 461.826 363.144 461.826 363.588C461.826 364.452 461.502 365.106 460.854 365.55C460.218 365.994 459.306 366.216 458.118 366.216C457.29 366.216 456.642 366.144 456.174 366C455.706 365.868 455.388 365.766 455.22 365.694L455.526 364.254C455.718 364.326 456.024 364.434 456.444 364.578C456.864 364.722 457.422 364.794 458.118 364.794ZM466.151 364.794C466.835 364.794 467.339 364.704 467.663 364.524C467.999 364.344 468.167 364.056 468.167 363.66C468.167 363.252 468.005 362.928 467.681 362.688C467.357 362.448 466.823 362.178 466.079 361.878C465.719 361.734 465.371 361.59 465.035 361.446C464.711 361.29 464.429 361.11 464.189 360.906C463.949 360.702 463.757 360.456 463.613 360.168C463.469 359.88 463.397 359.526 463.397 359.106C463.397 358.278 463.703 357.624 464.315 357.144C464.927 356.652 465.761 356.406 466.817 356.406C467.081 356.406 467.345 356.424 467.609 356.46C467.873 356.484 468.119 356.52 468.347 356.568C468.575 356.604 468.773 356.646 468.941 356.694C469.121 356.742 469.259 356.784 469.355 356.82L469.049 358.26C468.869 358.164 468.587 358.068 468.203 357.972C467.819 357.864 467.357 357.81 466.817 357.81C466.349 357.81 465.941 357.906 465.593 358.098C465.245 358.278 465.071 358.566 465.071 358.962C465.071 359.166 465.107 359.346 465.179 359.502C465.263 359.658 465.383 359.802 465.539 359.934C465.707 360.054 465.911 360.168 466.151 360.276C466.391 360.384 466.679 360.498 467.015 360.618C467.459 360.786 467.855 360.954 468.203 361.122C468.551 361.278 468.845 361.464 469.085 361.68C469.337 361.896 469.529 362.16 469.661 362.472C469.793 362.772 469.859 363.144 469.859 363.588C469.859 364.452 469.535 365.106 468.887 365.55C468.251 365.994 467.339 366.216 466.151 366.216C465.323 366.216 464.675 366.144 464.207 366C463.739 365.868 463.421 365.766 463.253 365.694L463.559 364.254C463.751 364.326 464.057 364.434 464.477 364.578C464.897 364.722 465.455 364.794 466.151 364.794ZM471.484 361.338C471.484 360.51 471.604 359.79 471.844 359.178C472.084 358.554 472.402 358.038 472.798 357.63C473.194 357.222 473.65 356.916 474.166 356.712C474.682 356.508 475.21 356.406 475.75 356.406C477.01 356.406 477.976 356.802 478.648 357.594C479.32 358.374 479.656 359.568 479.656 361.176C479.656 361.248 479.656 361.344 479.656 361.464C479.656 361.572 479.65 361.674 479.638 361.77H473.23C473.302 362.742 473.584 363.48 474.076 363.984C474.568 364.488 475.336 364.74 476.38 364.74C476.968 364.74 477.46 364.692 477.856 364.596C478.264 364.488 478.57 364.386 478.774 364.29L479.008 365.694C478.804 365.802 478.444 365.916 477.928 366.036C477.424 366.156 476.848 366.216 476.2 366.216C475.384 366.216 474.676 366.096 474.076 365.856C473.488 365.604 473.002 365.262 472.618 364.83C472.234 364.398 471.946 363.888 471.754 363.3C471.574 362.7 471.484 362.046 471.484 361.338ZM477.91 360.42C477.922 359.664 477.73 359.046 477.334 358.566C476.95 358.074 476.416 357.828 475.732 357.828C475.348 357.828 475.006 357.906 474.706 358.062C474.418 358.206 474.172 358.398 473.968 358.638C473.764 358.878 473.602 359.154 473.482 359.466C473.374 359.778 473.302 360.096 473.266 360.42H477.91ZM485.517 356.442C485.661 356.442 485.823 356.454 486.003 356.478C486.195 356.49 486.381 356.514 486.561 356.55C486.741 356.574 486.903 356.604 487.047 356.64C487.203 356.664 487.317 356.688 487.389 356.712L487.101 358.17C486.969 358.122 486.747 358.068 486.435 358.008C486.135 357.936 485.745 357.9 485.265 357.9C484.953 357.9 484.641 357.936 484.329 358.008C484.029 358.068 483.831 358.11 483.735 358.134V366H482.061V357.036C482.457 356.892 482.949 356.76 483.537 356.64C484.125 356.508 484.785 356.442 485.517 356.442ZM496.248 366V360.996C495.42 359.712 494.64 358.446 493.908 357.198C493.176 355.95 492.486 354.726 491.838 353.526H493.89C494.346 354.51 494.856 355.512 495.42 356.532C495.984 357.54 496.566 358.512 497.166 359.448C497.754 358.512 498.33 357.54 498.894 356.532C499.458 355.512 499.974 354.51 500.442 353.526H502.386C501.738 354.726 501.048 355.95 500.316 357.198C499.584 358.434 498.81 359.688 497.994 360.96V366H496.248ZM511.311 361.32C511.311 362.064 511.203 362.736 510.987 363.336C510.771 363.936 510.465 364.452 510.069 364.884C509.685 365.316 509.223 365.652 508.683 365.892C508.143 366.12 507.555 366.234 506.919 366.234C506.283 366.234 505.695 366.12 505.155 365.892C504.615 365.652 504.147 365.316 503.751 364.884C503.367 364.452 503.067 363.936 502.851 363.336C502.635 362.736 502.527 362.064 502.527 361.32C502.527 360.588 502.635 359.922 502.851 359.322C503.067 358.71 503.367 358.188 503.751 357.756C504.147 357.324 504.615 356.994 505.155 356.766C505.695 356.526 506.283 356.406 506.919 356.406C507.555 356.406 508.143 356.526 508.683 356.766C509.223 356.994 509.685 357.324 510.069 357.756C510.465 358.188 510.771 358.71 510.987 359.322C511.203 359.922 511.311 360.588 511.311 361.32ZM509.565 361.32C509.565 360.264 509.325 359.43 508.845 358.818C508.377 358.194 507.735 357.882 506.919 357.882C506.103 357.882 505.455 358.194 504.975 358.818C504.507 359.43 504.273 360.264 504.273 361.32C504.273 362.376 504.507 363.216 504.975 363.84C505.455 364.452 506.103 364.758 506.919 364.758C507.735 364.758 508.377 364.452 508.845 363.84C509.325 363.216 509.565 362.376 509.565 361.32ZM521.119 365.73C520.735 365.826 520.225 365.928 519.589 366.036C518.965 366.144 518.239 366.198 517.411 366.198C516.691 366.198 516.085 366.096 515.593 365.892C515.101 365.676 514.705 365.376 514.405 364.992C514.105 364.608 513.889 364.158 513.757 363.642C513.625 363.114 513.559 362.532 513.559 361.896V356.64H515.233V361.536C515.233 362.676 515.413 363.492 515.773 363.984C516.133 364.476 516.739 364.722 517.591 364.722C517.771 364.722 517.957 364.716 518.149 364.704C518.341 364.692 518.521 364.68 518.689 364.668C518.857 364.644 519.007 364.626 519.139 364.614C519.283 364.59 519.385 364.566 519.445 364.542V356.64H521.119V365.73ZM526.181 364.794C526.865 364.794 527.369 364.704 527.693 364.524C528.029 364.344 528.197 364.056 528.197 363.66C528.197 363.252 528.035 362.928 527.711 362.688C527.387 362.448 526.853 362.178 526.109 361.878C525.749 361.734 525.401 361.59 525.065 361.446C524.741 361.29 524.459 361.11 524.219 360.906C523.979 360.702 523.787 360.456 523.643 360.168C523.499 359.88 523.427 359.526 523.427 359.106C523.427 358.278 523.733 357.624 524.345 357.144C524.957 356.652 525.791 356.406 526.847 356.406C527.111 356.406 527.375 356.424 527.639 356.46C527.903 356.484 528.149 356.52 528.377 356.568C528.605 356.604 528.803 356.646 528.971 356.694C529.151 356.742 529.289 356.784 529.385 356.82L529.079 358.26C528.899 358.164 528.617 358.068 528.233 357.972C527.849 357.864 527.387 357.81 526.847 357.81C526.379 357.81 525.971 357.906 525.623 358.098C525.275 358.278 525.101 358.566 525.101 358.962C525.101 359.166 525.137 359.346 525.208 359.502C525.293 359.658 525.413 359.802 525.569 359.934C525.737 360.054 525.941 360.168 526.181 360.276C526.421 360.384 526.709 360.498 527.045 360.618C527.489 360.786 527.885 360.954 528.233 361.122C528.581 361.278 528.875 361.464 529.115 361.68C529.367 361.896 529.559 362.16 529.691 362.472C529.823 362.772 529.889 363.144 529.889 363.588C529.889 364.452 529.565 365.106 528.917 365.55C528.281 365.994 527.369 366.216 526.181 366.216C525.353 366.216 524.705 366.144 524.237 366C523.769 365.868 523.451 365.766 523.283 365.694L523.589 364.254C523.781 364.326 524.087 364.434 524.507 364.578C524.927 364.722 525.485 364.794 526.181 364.794ZM531.514 361.338C531.514 360.51 531.634 359.79 531.874 359.178C532.114 358.554 532.432 358.038 532.828 357.63C533.224 357.222 533.68 356.916 534.196 356.712C534.712 356.508 535.24 356.406 535.78 356.406C537.04 356.406 538.006 356.802 538.678 357.594C539.35 358.374 539.686 359.568 539.686 361.176C539.686 361.248 539.686 361.344 539.686 361.464C539.686 361.572 539.68 361.674 539.668 361.77H533.26C533.332 362.742 533.614 363.48 534.106 363.984C534.598 364.488 535.366 364.74 536.41 364.74C536.998 364.74 537.49 364.692 537.886 364.596C538.294 364.488 538.6 364.386 538.804 364.29L539.038 365.694C538.834 365.802 538.474 365.916 537.958 366.036C537.454 366.156 536.878 366.216 536.23 366.216C535.414 366.216 534.706 366.096 534.106 365.856C533.518 365.604 533.032 365.262 532.648 364.83C532.264 364.398 531.976 363.888 531.784 363.3C531.604 362.7 531.514 362.046 531.514 361.338ZM537.94 360.42C537.952 359.664 537.76 359.046 537.364 358.566C536.98 358.074 536.446 357.828 535.762 357.828C535.378 357.828 535.036 357.906 534.736 358.062C534.448 358.206 534.202 358.398 533.998 358.638C533.794 358.878 533.632 359.154 533.512 359.466C533.404 359.778 533.332 360.096 533.296 360.42H537.94ZM545.744 352.032C546.236 352.032 546.656 352.068 547.004 352.14C547.364 352.212 547.616 352.278 547.76 352.338L547.454 353.778C547.31 353.706 547.106 353.64 546.842 353.58C546.578 353.508 546.254 353.472 545.87 353.472C545.09 353.472 544.544 353.688 544.232 354.12C543.92 354.54 543.764 355.11 543.764 355.83V356.64H547.364V358.044H543.764V366H542.09V355.794C542.09 354.594 542.384 353.67 542.972 353.022C543.56 352.362 544.484 352.032 545.744 352.032ZM561.642 366C561.438 365.46 561.246 364.932 561.066 364.416C560.886 363.888 560.7 363.354 560.508 362.814H554.856L553.722 366H551.904C552.384 364.68 552.834 363.462 553.254 362.346C553.674 361.218 554.082 360.15 554.478 359.142C554.886 358.134 555.288 357.174 555.684 356.262C556.08 355.338 556.494 354.426 556.926 353.526H558.528C558.96 354.426 559.374 355.338 559.77 356.262C560.166 357.174 560.562 358.134 560.958 359.142C561.366 360.15 561.78 361.218 562.2 362.346C562.62 363.462 563.07 364.68 563.55 366H561.642ZM560.004 361.374C559.62 360.33 559.236 359.322 558.852 358.35C558.48 357.366 558.09 356.424 557.682 355.524C557.262 356.424 556.86 357.366 556.476 358.35C556.104 359.322 555.732 360.33 555.36 361.374H560.004ZM567.943 366.18C566.911 366.156 566.179 365.934 565.747 365.514C565.315 365.094 565.099 364.44 565.099 363.552V352.32L566.773 352.032V363.282C566.773 363.558 566.797 363.786 566.845 363.966C566.893 364.146 566.971 364.29 567.079 364.398C567.187 364.506 567.331 364.59 567.511 364.65C567.691 364.698 567.913 364.74 568.177 364.776L567.943 366.18ZM571.731 366H570.057V356.64H571.731V366ZM570.885 354.948C570.585 354.948 570.327 354.852 570.111 354.66C569.907 354.456 569.805 354.186 569.805 353.85C569.805 353.514 569.907 353.25 570.111 353.058C570.327 352.854 570.585 352.752 570.885 352.752C571.185 352.752 571.437 352.854 571.641 353.058C571.857 353.25 571.965 353.514 571.965 353.85C571.965 354.186 571.857 354.456 571.641 354.66C571.437 354.852 571.185 354.948 570.885 354.948Z" fill="white"/>
        </g>
        </g>
        </svg>